<svg viewBox="0 0 4059 800" xml:space="preserve" style="fill-rule:evenodd;clip-rule:evenodd;stroke-linecap:round;stroke-linejoin:round;stroke-miterlimit:1.5" xmlns="http://www.w3.org/2000/svg"><path d="m1695.83 25 290.741 654.167M2362.5 25l-333.333 750M2529.17 25l-290.741 654.167M2823.61 112.5 2529.166 775M3029.17 25l-333.334 750M3158.8 108.333 2862.504 775M1362.5 25l333.333 750M1029.17 25l333.333 750M862.5 25l290.741 654.167M529.167 25 862.5 775M401.389 112.5 695.833 775M29.167 25 362.5 775M3658.8 108.333 3362.504 775M4029.17 25l-166.667 375M127.778 25H362.5M945.833 775h250M1445.83 775h138.889M1779.17 775h138.889M2195.83 775h246.615M2611.72 25h248.003M3195.83 25h326.583M2973.61 775h243.056M3695.83 25h222.223M3473.61 775h222.222" style="fill:#000;stroke:#000;stroke-width:50px;stroke-opacity:1"/></svg>