<?xml version="1.0" encoding="UTF-8" standalone="no"?><!DOCTYPE svg PUBLIC "-//W3C//DTD SVG 1.1//EN" "http://www.w3.org/Graphics/SVG/1.1/DTD/svg11.dtd"><svg width="100%" height="100%" viewBox="0 0 4059 800" version="1.1" xmlns="http://www.w3.org/2000/svg" xmlns:xlink="http://www.w3.org/1999/xlink" xml:space="preserve" xmlns:serif="http://www.serif.com/" style="fill-rule:evenodd;clip-rule:evenodd;stroke-linecap:round;stroke-linejoin:round;stroke-miterlimit:1.5;"><g><g><path d="M1695.83,25l290.741,654.167" style="fill:none;stroke:#fff;stroke-width:50px;"/><path d="M2362.5,25l-333.333,750" style="fill:none;stroke:#fff;stroke-width:50px;"/><path d="M2529.17,25l-290.741,654.167" style="fill:none;stroke:#fff;stroke-width:50px;"/><path d="M2823.61,112.5l-294.444,662.5" style="fill:none;stroke:#fff;stroke-width:50px;"/><path d="M3029.17,25l-333.334,750" style="fill:none;stroke:#fff;stroke-width:50px;"/><path d="M3158.8,108.333l-296.296,666.667" style="fill:none;stroke:#fff;stroke-width:50px;"/><path d="M1362.5,25l333.333,750" style="fill:none;stroke:#fff;stroke-width:50px;"/><path d="M1029.17,25l333.333,750" style="fill:none;stroke:#fff;stroke-width:50px;"/><path d="M862.5,25l290.741,654.167" style="fill:none;stroke:#fff;stroke-width:50px;"/><path d="M529.167,25l333.333,750" style="fill:none;stroke:#fff;stroke-width:50px;"/><path d="M401.389,112.5l294.444,662.5" style="fill:none;stroke:#fff;stroke-width:50px;"/><path d="M29.167,25l333.333,750" style="fill:none;stroke:#fff;stroke-width:50px;"/><path d="M3658.8,108.333l-296.296,666.667" style="fill:none;stroke:#fff;stroke-width:50px;"/><path d="M4029.17,25l-166.667,375" style="fill:none;stroke:#fff;stroke-width:50px;"/><path d="M127.778,25l234.722,0" style="fill:none;stroke:#fff;stroke-width:50px;"/><path d="M945.833,775l250,0" style="fill:none;stroke:#fff;stroke-width:50px;"/><path d="M1445.83,775l138.889,0" style="fill:none;stroke:#fff;stroke-width:50px;"/><path d="M1779.17,775l138.889,0" style="fill:none;stroke:#fff;stroke-width:50px;"/><path d="M2195.83,775l246.615,0" style="fill:none;stroke:#fff;stroke-width:50px;"/><path d="M2611.72,25l248.003,0" style="fill:none;stroke:#fff;stroke-width:50px;"/><path d="M3195.83,25l326.583,0" style="fill:none;stroke:#fff;stroke-width:50px;"/><path d="M2973.61,775l243.056,0" style="fill:none;stroke:#fff;stroke-width:50px;"/><path d="M3695.83,25l222.223,0" style="fill:none;stroke:#fff;stroke-width:50px;"/><path d="M3473.61,775l222.222,0" style="fill:none;stroke:#fff;stroke-width:50px;"/><rect x="-0" y="0" width="4058.33" height="800" style="fill:none;"/></g></g></svg>